DataRate=1200.000000
DataType=double
version=3
OpenSimVersion=4.3-2021-08-27-4bc7ad9
endheader
time	f1_1	f1_2	f1_3	p1_1	p1_2	p1_3	m1_1	m1_2	m1_3	f2_1	f2_2	f2_3	p2_1	p2_2	p2_3	m2_1	m2_2	m2_3	f3_1	f3_2	f3_3	p3_1	p3_2	p3_3	m3_1	m3_2	m3_3
1.105	0.04682967655835016	-0.2989294368388402	2.317111968994141	-255.6999969482422	396.8999938964844	0	137.577447365362	17.20559119003063	-45.20699961070401	-0.1463046525527001	0.1351332240715771	-0.2792839407920837	253.7999877929688	225.3000030517578	0	11.62253641206727	83.72876329809596	-20.26889654046272	0.1547975142347338	-0.07004599573032831	0.4870826303958893	946.699951171875	380.3999938964844	0	-29.19346563882261	-145.3397537206793	72.41521185292478
1.105833333333333	-0.2532912481098108	-0.2142186559145402	-1.083118319511414	-255.6999969482422	396.8999938964844	0	236.3226760549481	48.59844149150683	-2.450402213745737	-0.3479774327171712	0.0008224636773848304	-0.1930336356163025	253.7999877929688	225.3000030517578	0	34.23669701233359	44.45690919206709	-25.38939293872278	-0.07665747482634373	0.2912250017244346	-0.226830318570137	946.699951171875	380.3999938964844	0	76.66065692607636	90.09005310655785	198.9742593694185
1.106666666666667	0.2683240360759916	0.01148914093469961	-0.2649916708469391	-255.6999969482422	396.8999938964844	0	-589.1687106332485	106.3730859057769	-5.35848838719798	-0.01621886179113344	0.04771134504109149	0.4174705147743225	253.7999877929688	225.3000030517578	0	-60.39677003666138	57.64820718709801	5.960017226977882	0.02194878321211057	0.2499570314662844	0.3106299936771393	946.699951171875	380.3999938964844	0	-143.2192767369391	-99.79929767560948	53.59531745324998
1.1075	0.101448828805425	-0.618623455359242	-0.4556922018527985	-255.6999969482422	396.8999938964844	0	5.06959165328019	151.124680549483	28.54240078422936	0.03845158557251173	-0.3950148272053526	-0.3719353079795837	253.7999877929688	225.3000030517578	0	-54.69218354782956	-88.54237446940058	13.3401782831959	-0.4372488518018635	0.411173966816221	0.3925162851810455	946.699951171875	380.3999938964844	0	12.11604916939517	78.06422446352435	-16.5286515159318
1.108333333333333	-0.6153345577938814	0.2305800551308826	1.441719174385071	-255.6999969482422	396.8999938964844	0	-314.4778366852443	-157.3689609912138	113.1453192820927	-0.1338840519371093	-0.1047007995266794	-1.239305853843689	253.7999877929688	225.3000030517578	0	-70.82469735465673	-127.9975501428947	13.94990199503343	0.08801214307163249	0.1336242672108763	0.4818030893802643	946.699951171875	380.3999938964844	0	108.1342383452427	-22.81599381990366	-39.56931949698171
1.109166666666667	-0.03291252541928853	-0.04652757440472839	-0.09188833087682724	-255.6999969482422	396.8999938964844	0	-91.13822758618764	-120.1476306010295	27.13946573166366	0.2612444728698537	-0.1501027973110117	2.151776790618896	253.7999877929688	225.3000030517578	0	-358.2721182931983	54.02454795005629	-89.27331581330621	0.08594053153555442	0.2609292754958583	-0.8481300473213196	946.699951171875	380.3999938964844	0	-4.076419007669305	-74.36747825011858	158.8182386959931
1.11	0.2943436908764666	-0.0718252533086499	-1.526096224784851	-255.6999969482422	396.8999938964844	0	-24.1933619142597	-41.8765822530191	46.5594082712701	-0.143299867093225	-0.08620122205178719	-0.4565529227256775	253.7999877929688	225.3000030517578	0	-86.65630493648911	64.80933425316624	-17.06302279525411	0.139730802941932	0.3417323912871745	-1.656548380851746	946.699951171875	380.3999938964844	0	-256.0715816041243	4.451414110041029	-7.135933127159911
1.110833333333333	-0.2455463863439968	-0.2731809934534087	0.171154111623764	-255.6999969482422	396.8999938964844	0	-60.09033724159348	36.28828363047374	-82.07021245873426	-0.1981128876752973	0.07082367106051342	0.853643000125885	253.7999877929688	225.3000030517578	0	-117.3595565735079	-21.40611890386877	-7.935106347869148	0.2496718023958121	0.1494205709094099	-0.2304542809724808	946.699951171875	380.3999938964844	0	-28.45613799132134	9.470232706350915	10.75135362428376
1.111666666666667	-0.1334648610500287	-0.2707138474460531	-0.4491957724094391	-255.6999969482422	396.8999938964844	0	-256.5264268312206	112.938489677661	4.835615727931865	-0.1709030137893364	0.1354462945682611	0.1599708199501038	253.7999877929688	225.3000030517578	0	185.0253682189079	-42.07110362665067	29.41429540881003	0.04037830483973035	-0.009773244297685127	-0.2315147668123245	946.699951171875	380.3999938964844	0	3.780367429860626	-31.58509538867988	30.17946113126115
1.1125	0.008722150701128124	-0.164529344838784	-1.614166140556335	-255.6999969482422	396.8999938964844	0	4.139482344900765	414.9278774370225	58.86496720340226	-0.05343107838363806	0.006840300011367284	-0.1038231179118156	253.7999877929688	225.3000030517578	0	22.09043484463134	-201.0874610668402	28.19541102004262	0.03907978928039899	-0.115248677599863	-1.479927897453308	946.699951171875	380.3999938964844	0	28.43768189232132	-179.8065841477787	3.996738181437004
1.113333333333334	0.2797720346102604	-0.5694198848859239	-0.1871985495090485	-255.6999969482422	396.8999938964844	0	-100.9759704599921	143.153900261125	-4.019334366303721	-0.0780527382716011	-0.1068279989973417	-0.01985400542616844	253.7999877929688	225.3000030517578	0	27.6122133125693	-103.2171819143062	-7.722743303525836	0.2712671622608989	-0.01252851184684972	-0.4111107289791107	946.699951171875	380.3999938964844	0	-94.06797530672192	67.45415370259752	42.90684308411498
1.114166666666667	0.1273393193795125	-0.2748993878276282	-0.01053609885275364	-255.6999969482422	396.8999938964844	0	27.43090806403067	-98.17209012487028	-68.84473002415629	-0.1288421329612732	0.1595450871245006	0.5057883858680725	253.7999877929688	225.3000030517578	0	-64.82886843847848	-4.891495329589872	-11.71428166843064	-0.07430997345914571	0.02385765671437685	-1.219536662101746	946.699951171875	380.3999938964844	0	75.07826568068998	82.41635187417906	-44.28972145766747
1.115	-0.23134830699981	-0.0445674911731487	2.861862182617188	-255.6999969482422	396.8999938964844	0	-58.7102382552896	-99.78061332368414	-5.29294317491556	0.2080706900451404	-0.4631709099067526	0.67227703332901	253.7999877929688	225.3000030517578	0	-66.01646984874407	8.724595542968181	13.39397835747522	0.2231144468156125	0.06035396384154088	0.03643719479441643	946.699951171875	380.3999938964844	0	125.1492764158326	0.2565423741208071	33.69768661907917
1.115833333333333	-0.3988446636608726	-0.3912004859991254	0.08633432537317276	-255.6999969482422	396.8999938964844	0	-15.84079095039618	-45.88201140591985	54.85751387214993	-0.01948116105769711	-0.1063693002760311	-1.763994574546814	253.7999877929688	225.3000030517578	0	-79.87487917814485	12.54530169819069	-3.615871448162468	0.291879612313216	-0.3282251624095644	0.2107154577970505	946.699951171875	380.3999938964844	0	-10.10679050730236	-41.51117788275308	-24.90731582107465
1.116666666666667	-0.202027608892964	-0.02541982795350397	2.239349365234375	-255.6999969482422	396.8999938964844	0	-18.87959490118743	-99.52856951400038	109.6144842851999	-0.1625493162742911	-0.08355198703561585	-0.6309608817100525	253.7999877929688	225.3000030517578	0	-155.4141140172031	-49.78023964246361	-21.98152023267216	-0.0547857199327857	0.0451799809240621	0.4856635630130768	946.699951171875	380.3999938964844	0	153.4886958897721	-58.18335782859066	112.9505248277568
1.1175	0.07648562296362273	0.1784962866687407	1.15905773639679	-255.6999969482422	396.8999938964844	0	106.4241603959101	-20.38122869386138	5.858612912894143	0.389757613026259	-0.01844637985800676	0.06774670630693436	253.7999877929688	225.3000030517578	0	22.98167349732175	87.74146760135561	29.02364850378039	0.3372103635162875	-0.2603930021837589	0.1219016686081886	946.699951171875	380.3999938964844	0	22.72287961748932	5.646808449381933	6.623556240054539
1.118333333333333	0.08358084402152793	-0.1901194528812787	-1.177200198173523	-255.6999969482422	396.8999938964844	0	267.653713250371	251.403887528513	-78.76742095640489	0.2821132826513463	-0.1267436587117906	-0.1069969460368156	253.7999877929688	225.3000030517578	0	16.03257363609898	-119.57370486405	28.27537223449103	-0.07700801759069602	-0.2078337081198599	0.6560432314872742	946.699951171875	380.3999938964844	0	162.1645555010506	-36.01429992839347	-33.98685713813952
1.119166666666667	-0.01006945685724754	-0.2339769998455236	-0.007114314939826727	-255.6999969482422	396.8999938964844	0	138.4854465724804	75.18588651784228	24.54834279569391	0.754875223428614	-0.2172322258286801	-0.6322960257530212	253.7999877929688	225.3000030517578	0	22.00691746831199	110.7061140604525	55.60788574512327	0.06360596281711406	-0.06429853682409153	1.107710957527161	946.699951171875	380.3999938964844	0	20.40110764244795	-61.82195344000205	16.55590687077969
1.12	-0.08002000594301394	0.2236206641969028	-0.09274282306432724	-255.6999969482422	396.8999938964844	0	68.10295279551703	49.08005276645947	6.521334220356705	0.020498400636499	0.02479635793168342	1.465840935707092	253.7999877929688	225.3000030517578	0	16.40551012828667	54.04216152947097	59.74350910627239	0.1534531310342112	0.1079134414531728	-0.05102618411183357	946.699951171875	380.3999938964844	0	19.57033812853221	100.7944239877186	152.8285369004489
1.120833333333333	-0.1950579505925329	0.2507410225423	-0.5452841520309448	-255.6999969482422	396.8999938964844	0	-10.76648622070632	-23.48961747832497	-149.9872532781206	-0.1574361985385975	-0.2404938585659631	-1.242563605308533	253.7999877929688	225.3000030517578	0	29.98015386407318	-107.4788046144386	-30.5463168901618	0.1774828354578789	-0.0786823867050693	-0.1433800011873245	946.699951171875	380.3999938964844	0	30.46070014622491	-17.4699957430565	20.62397846472066
1.121666666666667	-0.06468297813840974	0.1853804848955741	-0.0005682945484295487	-255.6999969482422	396.8999938964844	0	-218.7279625325857	19.73502616080084	-27.06261943116898	0.09749622708636292	0.2281535052154083	0.2441993355751038	253.7999877929688	225.3000030517578	0	-129.8125851429672	4.657152382261399	-7.017639918125465	-0.07269231396613815	-0.1672844139494656	0.03196636959910393	946.699951171875	380.3999938964844	0	-131.0131579266212	13.36115403803381	-24.57210069583959
1.1225	0.05404885392605816	-0.1588200099464258	-0.006175899412482977	-255.6999969482422	396.8999938964844	0	-95.21688783224057	-25.38106368460176	-41.17243410952029	0.01086495766576808	-0.06464212035989218	-0.1051887795329094	253.7999877929688	225.3000030517578	0	242.8434151396926	-69.16440471409054	11.45325623498754	-0.02646531579438791	0.08499312329578558	0.1203910484910011	946.699951171875	380.3999938964844	0	-20.83550413406559	159.5080382601189	-8.187317557368205
1.123333333333333	-0.05862238572289235	-0.2973142542333732	-0.08579625934362411	-255.6999969482422	396.8999938964844	0	-208.3888600609796	-19.76398624395027	164.3997893671065	0.1439759159601563	0.1383336522814854	0.07018048316240311	253.7999877929688	225.3000030517578	0	29.94229077648316	-36.32756562505709	11.30742418850797	-0.02818955528874164	0.1486670974734866	-0.4060142934322357	946.699951171875	380.3999938964844	0	118.1254543083512	-176.7386103605123	3.356552545793291
